<?xml version="1.0" standalone="no"?><!DOCTYPE svg PUBLIC "-//W3C//DTD SVG 1.1//EN" "http://www.w3.org/Graphics/SVG/1.1/DTD/svg11.dtd"><svg t="1744116338077" class="icon" viewBox="0 0 1316 1024" version="1.1" xmlns="http://www.w3.org/2000/svg" p-id="44570" xmlns:xlink="http://www.w3.org/1999/xlink" width="257.03125" height="200"><path d="M244.516571 435.2c-37.595429 0-65.828571 17.042286-75.264 51.2L84.626286 725.357714V76.8h413.769143C489.033143 153.6 564.224 221.842286 658.285714 221.842286h413.769143v145.115428h84.626286V221.842286c0-42.642286-37.595429-76.8-84.626286-76.8H658.285714c-47.030857 0-84.626286-34.084571-84.626285-76.8C573.659429 34.157714 536.064 0 489.033143 0H84.626286C37.595429 0 0 34.157714 0 76.8v878.957714c0 34.084571 37.595429 68.242286 84.626286 68.242286h987.428571c37.595429 0 65.828571-17.042286 75.264-51.2L1316.571429 512c0-42.642286-37.595429-76.8-84.626286-76.8h-987.428572z" fill="#4D7CFE" p-id="44571"></path></svg>