<?xml version="1.0" standalone="no"?><!DOCTYPE svg PUBLIC "-//W3C//DTD SVG 1.1//EN" "http://www.w3.org/Graphics/SVG/1.1/DTD/svg11.dtd"><svg t="1744115896137" class="icon" viewBox="0 0 1024 1024" version="1.1" xmlns="http://www.w3.org/2000/svg" p-id="8096" xmlns:xlink="http://www.w3.org/1999/xlink" width="200" height="200"><path d="M792.3712 847.4624c-5.7344-1.2288-10.6496-4.5056-13.7216-9.4208l-63.6928-96.8704c-6.5536-10.0352-3.8912-23.552 6.144-30.1056 10.0352-6.5536 23.552-3.8912 30.1056 6.144l63.6928 96.8704c6.5536 10.0352 3.8912 23.552-6.144 30.1056-4.9152 3.2768-10.8544 4.3008-16.384 3.2768" fill="#1296db" p-id="8097"></path><path d="M682.1888 369.0496c-109.568-22.7328-216.6784 47.7184-239.4112 157.2864-22.7328 109.568 47.7184 216.6784 157.2864 239.4112 109.568 22.7328 216.6784-47.7184 239.4112-157.2864 22.528-109.568-47.7184-216.6784-157.2864-239.4112z m114.688 230.6048c-17.8176 86.016-101.9904 141.312-188.2112 123.4944-86.016-17.8176-141.5168-101.9904-123.4944-188.2112 17.8176-86.016 101.9904-141.5168 188.2112-123.4944 86.016 17.8176 141.312 102.1952 123.4944 188.2112z" fill="#1296db" p-id="8098"></path><path d="M407.552 568.5248c0-129.024 104.6528-233.6768 233.6768-233.6768 43.6224 0 84.5824 12.0832 119.3984 32.768v-132.7104c0-32.3584-26.4192-58.7776-58.7776-58.7776h-462.848C206.6432 176.128 180.224 202.5472 180.224 234.9056v463.2576c0 32.3584 26.4192 58.7776 58.7776 58.7776h263.7824c-57.7536-42.5984-95.232-111.2064-95.232-188.416z m-131.2768-264.6016h226.5088c9.6256 0 16.1792 6.5536 16.1792 16.1792s-6.5536 16.1792-16.1792 16.1792H276.2752c-9.6256 0-16.1792-6.5536-16.1792-16.1792s6.3488-16.1792 16.1792-16.1792z m0 178.176c-9.6256 0-16.1792-6.5536-16.1792-16.1792s6.5536-16.1792 16.1792-16.1792h129.4336c9.6256 0 16.1792 6.5536 16.1792 16.1792s-6.5536 16.1792-16.1792 16.1792h-129.4336z" fill="#1296db" p-id="8099"></path></svg>