<?xml version="1.0" standalone="no"?><!DOCTYPE svg PUBLIC "-//W3C//DTD SVG 1.1//EN" "http://www.w3.org/Graphics/SVG/1.1/DTD/svg11.dtd"><svg t="1744697105564" class="icon" viewBox="0 0 1024 1024" version="1.1" xmlns="http://www.w3.org/2000/svg" p-id="2010" xmlns:xlink="http://www.w3.org/1999/xlink" width="200" height="200"><path d="M996.939932 894.30481V83.972283c0-46.184755-37.787527-83.972283-83.972283-83.972283H111.032351C64.847595 0 27.060068 37.787527 27.060068 83.972283v810.332527h969.879864z" fill="#EDEDED" p-id="2011"></path><path d="M912.967649 0H111.032351C64.847595 0 27.060068 37.787527 27.060068 83.972283v100.766739h969.879864V83.972283c0-46.184755-37.787527-83.972283-83.972283-83.972283z" fill="#6B7F8F" p-id="2012"></path><path d="M203.128952 445.179056c0 506.730739 327.613662 578.820944 327.613661 578.820944 346.566206-150.503522 304.122416-562.47154 304.122416-562.47154-202.746878 0-304.122416-170.048071-304.122416-170.048071-110.633482 183.126754-327.613662 153.698667-327.613661 153.698667z" fill="#00CCC6" p-id="2013"></path><path d="M834.860831 461.52846c-202.746878 0-304.122416-170.048071-304.122416-170.048071V1024c344.970733-152.090598 304.122416-562.47154 304.122416-562.47154z" fill="#00B5B0" p-id="2014"></path><path d="M356.735249 643.05974c-10.744254 12.129796-10.769445 32.459486-0.071376 45.177088l108.487991 128.901652c10.710665 12.721801 28.651343 13.099676 39.874238 0.822929l228.849662-250.241601c11.218697-12.280946 11.886277-29.680003 1.507302-38.690229-10.404166-9.010226-29.570839-7.914388-42.599139 2.418402l-184.474509 146.376284c-13.032498 10.349584-34.852696 11.004568-48.493993 1.482111l-58.768002-40.982673c-13.624503-9.526655-33.56792-7.397958-44.312174 4.736037z" fill="#FFFFFF" p-id="2015"></path><path d="M117.166526 93.305802m-32.190775 0a32.190775 32.190775 0 1 0 64.381549 0 32.190775 32.190775 0 1 0-64.381549 0Z" fill="#FF8359" p-id="2016"></path><path d="M221.926147 93.305802m-32.190774 0a32.190775 32.190775 0 1 0 64.381549 0 32.190775 32.190775 0 1 0-64.381549 0Z" fill="#FFBF00" p-id="2017"></path><path d="M322.898618 93.305802m-32.190774 0a32.190775 32.190775 0 1 0 64.381549 0 32.190775 32.190775 0 1 0-64.381549 0Z" fill="#00CCC6" p-id="2018"></path></svg>