<?xml version="1.0" standalone="no"?><!DOCTYPE svg PUBLIC "-//W3C//DTD SVG 1.1//EN" "http://www.w3.org/Graphics/SVG/1.1/DTD/svg11.dtd"><svg t="1744723880550" class="icon" viewBox="0 0 1024 1024" version="1.1" xmlns="http://www.w3.org/2000/svg" p-id="996" width="256" height="256" xmlns:xlink="http://www.w3.org/1999/xlink"><path d="M120.3712 86.3232m101.9392 0l552.3968 0q101.9392 0 101.9392 101.9392l0 626.2272q0 101.9392-101.9392 101.9392l-552.3968 0q-101.9392 0-101.9392-101.9392l0-626.2272q0-101.9392 101.9392-101.9392Z" fill="#42B4FA" p-id="997"></path><path d="M531.968 535.552h-235.52a40.96 40.96 0 0 1 0-81.92h235.52a40.96 40.96 0 0 1 0 81.92zM681.6768 353.792H296.448a40.96 40.96 0 0 1 0-81.92h385.2288a40.96 40.96 0 1 1 0 81.92z" fill="#FFFFFF" p-id="998"></path><path d="M730.6752 737.6384m-202.0352 0a202.0352 202.0352 0 1 0 404.0704 0 202.0352 202.0352 0 1 0-404.0704 0Z" fill="#92DBFF" p-id="999"></path><path d="M841.5744 732.8256a40.96 40.96 0 0 0-57.6512-5.4272l-12.288 10.24V640a40.96 40.96 0 0 0-81.92 0v98.0992c-4.5568-3.7888-7.8336-6.6048-9.4208-7.9872a40.96 40.96 0 0 0-62.4128 52.6848c3.9936 5.632 4.864 6.8096 87.04 73.6256a40.96 40.96 0 0 0 51.968 0l79.2064-65.8944a40.96 40.96 0 0 0 5.4784-57.7024z" fill="#FFFFFF" p-id="1000"></path></svg>